<svg width="350" height="188" viewBox="0 0 350 188" fill="none" xmlns="http://www.w3.org/2000/svg">
<path fill-rule="evenodd" clip-rule="evenodd" d="M168.537 51.7938H142.592V0H116.677V129.469H142.592V77.6755H168.537V129.469H194.451L168.537 0V51.7938Z" fill="#CC1019"/>
<path fill-rule="evenodd" clip-rule="evenodd" d="M233.354 129.469H207.439L202.256 103.588H233.354V129.469ZM233.354 25.8817H186.677L181.494 0H233.354V25.8817ZM233.354 77.6755H197.043L191.86 51.7938H233.354V77.6755Z" fill="#002962"/>
<path d="M0 186.592H6.55488V174.26H15.8537V186.592H22.4085V155.351H15.8537V167.683H6.55488V155.351H0V186.592ZM27.9878 186.592H48.0488V180.045H34.5427V174.26H46.4939V167.713H34.5427V161.928H48.0488V155.381H27.9878V186.592ZM73.0488 186.592H80.4573L65.7622 154.59L51.0671 186.592H58.4756L60.2439 182.359H71.2805L73.0488 186.592ZM62.6829 176.574L65.7622 169.175L68.8415 176.574H62.6829ZM85.3659 186.592H91.9207V161.928H99.5122V155.381H77.7134V161.928H85.3659V186.592ZM103.079 186.592H109.634V155.351H103.079V186.592ZM139.604 187.353V155.351H133.049V172.067L115.183 154.559V186.561H121.738V169.905L139.604 187.353ZM160.335 186.957C164.573 186.957 168.415 185.343 171.707 182.481V167.683H159.482V174.229H165.488V178.736C163.933 179.771 162.165 180.319 160.244 180.319C154.97 180.319 150.793 176.208 150.793 170.941C150.793 165.673 154.97 161.562 160.274 161.562C163.018 161.562 165.366 162.628 167.256 164.699L171.921 160.04C168.72 156.721 164.665 154.955 160.274 154.955C151.311 154.955 144.146 162.08 144.146 170.941C144.177 179.832 151.341 186.957 160.335 186.957ZM189.604 186.592H209.665V180.045H196.159V174.26H208.11V167.713H196.159V161.928H209.665V155.381H189.604V186.592ZM238.689 187.353V155.351H232.134V172.067L214.268 154.559V186.561H220.823V169.905L238.689 187.353ZM244.238 186.592H264.299V180.045H250.793V174.26H262.744V167.713H250.793V161.928H264.299V155.381H244.238V186.592ZM292.348 186.592L285.366 174.564C288.689 172.95 290.854 169.601 290.854 165.46C290.854 159.675 286.494 155.351 280.732 155.351H268.902V186.561H275.457V175.569H278.659L284.756 186.561H292.348V186.592ZM275.457 161.928H280.732C282.896 161.928 284.268 163.328 284.268 165.46C284.268 167.652 282.866 169.053 280.732 169.053H275.457V161.928ZM310.305 186.957C314.543 186.957 318.384 185.343 321.677 182.481V167.683H309.451V174.229H315.457V178.736C313.902 179.771 312.134 180.319 310.213 180.319C304.939 180.319 300.762 176.208 300.762 170.941C300.762 165.673 304.939 161.562 310.244 161.562C312.988 161.562 315.335 162.628 317.226 164.699L321.89 160.04C318.689 156.721 314.634 154.955 310.244 154.955C301.28 154.955 294.116 162.08 294.116 170.941C294.146 179.832 301.311 186.957 310.305 186.957ZM333.72 186.592H340.274V171.854L350 155.351H342.012L336.982 165.094L332.012 155.351H323.994L333.72 171.854V186.592Z" fill="black"/>
</svg>
