<svg width="23" height="22" viewBox="0 0 23 22" fill="none" xmlns="http://www.w3.org/2000/svg">
<path d="M6.27124 9.88281C7.64624 12.5469 9.66577 14.5664 12.3298 15.9414L14.3494 13.9219C14.6358 13.6354 14.9509 13.5638 15.2947 13.707C16.3259 14.0508 17.4145 14.2227 18.5603 14.2227C18.8181 14.2227 19.033 14.3086 19.2048 14.4805C19.3767 14.6523 19.4626 14.8672 19.4626 15.125V18.3477C19.4626 18.6055 19.3767 18.8203 19.2048 18.9922C19.033 19.1641 18.8181 19.25 18.5603 19.25C14.2634 19.25 10.5824 17.7318 7.51733 14.6953C4.48088 11.6302 2.96265 7.94922 2.96265 3.65234C2.96265 3.39453 3.04858 3.17969 3.22046 3.00781C3.39233 2.83594 3.60718 2.75 3.86499 2.75H7.08765C7.34546 2.75 7.5603 2.83594 7.73218 3.00781C7.90405 3.17969 7.98999 3.39453 7.98999 3.65234C7.98999 4.79818 8.16187 5.88672 8.50562 6.91797C8.6202 7.29036 8.54858 7.60547 8.29077 7.86328L6.27124 9.88281Z" fill="#989898"/>
</svg>
