<svg width="16" height="18" viewBox="0 0 16 18" fill="none" xmlns="http://www.w3.org/2000/svg">
<path d="M13.8203 15.6797V6.5H2.17969V15.6797H13.8203ZM13.8203 2.32031C14.263 2.32031 14.6536 2.48958 14.9922 2.82812C15.3307 3.16667 15.5 3.55729 15.5 4V15.6797C15.5 16.1224 15.3307 16.513 14.9922 16.8516C14.6536 17.1641 14.263 17.3203 13.8203 17.3203H2.17969C1.71094 17.3203 1.30729 17.1641 0.96875 16.8516C0.65625 16.513 0.5 16.1224 0.5 15.6797V4C0.5 3.55729 0.65625 3.16667 0.96875 2.82812C1.30729 2.48958 1.71094 2.32031 2.17969 2.32031H3V0.679688H4.67969V2.32031H11.3203V0.679688H13V2.32031H13.8203ZM12.1797 8.17969V9.82031H10.5V8.17969H12.1797ZM8.82031 8.17969V9.82031H7.17969V8.17969H8.82031ZM5.5 8.17969V9.82031H3.82031V8.17969H5.5Z" fill="#141414"/>
</svg>
