<svg width="213" height="212" viewBox="0 0 213 212" fill="none" xmlns="http://www.w3.org/2000/svg">
<path d="M180.755 138.015L189.581 122.73C190.389 121.33 189.909 119.539 188.509 118.73C187.109 117.923 185.318 118.402 184.51 119.802L176.528 133.623L144.603 133.623L133.708 114.757C133.185 113.852 132.219 113.294 131.173 113.294L82.697 113.294C81.6505 113.294 80.6841 113.851 80.1609 114.758L69.2667 133.624H37.3417L31.8958 124.193L53.6406 124.193C54.6863 124.194 55.6535 123.636 56.1768 122.73L65.0031 107.444C65.5255 106.539 65.5255 105.423 65.0031 104.517L56.1768 89.232C55.6535 88.3273 54.6871 87.7685 53.6406 87.7685L31.8958 87.7685L37.3425 78.3382L40.1294 78.3382C41.7468 78.3382 43.0577 77.0275 43.0577 75.4103C43.0577 73.7948 41.7468 72.4841 40.1302 72.4833L35.6515 72.4833C34.605 72.4833 33.6394 73.0412 33.1154 73.9468L24.289 89.232C23.7666 90.1376 23.7666 91.2535 24.289 92.1591C24.8123 93.0655 25.7795 93.6234 26.8252 93.6226H51.9504L59.0865 105.981L51.9504 118.339L26.8252 118.339C25.7787 118.339 24.8131 118.897 24.289 119.803C23.7666 120.708 23.7666 121.824 24.289 122.73L33.1154 138.015C33.2448 138.24 33.4025 138.443 33.5812 138.621C34.123 139.163 34.8646 139.479 35.6515 139.478L70.9577 139.479C72.0025 139.479 72.9698 138.921 73.493 138.015L84.3872 119.15L129.482 119.149L140.377 138.015C140.9 138.921 141.867 139.478 142.912 139.479L178.219 139.478C179.264 139.479 180.231 138.92 180.755 138.015Z" fill="#295BA0"/>
<path d="M66.4793 78.3382H69.2662L80.1596 97.2039C80.2898 97.4278 80.4467 97.6316 80.6254 97.8103C81.1673 98.352 81.9089 98.6682 82.6957 98.6674L131.173 98.6682C132.218 98.6674 133.185 98.1103 133.708 97.2038L144.602 78.3374L176.528 78.3382L181.973 87.7686L160.229 87.7678C159.183 87.7678 158.216 88.3265 157.694 89.2321L148.867 104.517C148.344 105.423 148.344 106.539 148.868 107.444L157.694 122.73C158.503 124.13 160.292 124.61 161.693 123.801C163.094 122.993 163.573 121.203 162.765 119.803L154.784 105.981L161.919 93.6235L187.045 93.6235C188.091 93.6235 189.057 93.0656 189.581 92.16C190.104 91.2536 190.104 90.1377 189.58 89.2321L180.754 73.9468C180.23 73.0412 179.264 72.4833 178.218 72.4833L142.912 72.4833C141.866 72.4833 140.899 73.0404 140.376 73.9468L129.482 92.8133H84.386L73.4917 73.9468C72.9685 73.0404 72.0021 72.4833 70.9556 72.4833L66.4793 72.4825C64.8627 72.4833 63.5517 73.794 63.5509 75.4104C63.5517 77.0267 64.8627 78.3374 66.4793 78.3382Z" fill="#295BA0"/>
<path d="M171.332 123.337C171.862 123.866 172.594 124.194 173.403 124.194L173.405 124.195C175.022 124.194 176.332 122.884 176.332 121.267C176.332 119.649 175.02 118.339 173.403 118.339C171.785 118.339 170.474 119.65 170.475 121.267C170.475 122.075 170.803 122.807 171.332 123.337Z" fill="#295BA0"/>
<path d="M51.232 77.48C51.7949 78.0428 52.5843 78.376 53.4424 78.3347L53.4448 78.3355C55.06 78.2587 56.3063 76.8864 56.2295 75.2716C56.1526 73.6567 54.7793 72.4098 53.1642 72.4866C51.549 72.5634 50.3018 73.9349 50.3787 75.5497C50.4151 76.3075 50.7354 76.9835 51.232 77.48Z" fill="#295BA0"/>
</svg>
