<svg width="31" height="31" viewBox="0 0 31 31" fill="none" xmlns="http://www.w3.org/2000/svg">
<path opacity="0.6" fill-rule="evenodd" clip-rule="evenodd" d="M15.5 0C6.93959 0 0 6.93959 0 15.5C0 24.0604 6.93959 31 15.5 31C24.0604 31 31 24.0604 31 15.5C31 6.93959 24.0604 0 15.5 0ZM16.5349 16.4062V25.8332L12.741 25.8333V16.4063H9.56861V12.7324H12.7411V10.023C12.7411 6.87871 14.6614 5.16667 17.4663 5.16667C18.8098 5.16667 19.9646 5.26666 20.3012 5.31127V8.59714L18.3557 8.59804C16.8303 8.59804 16.5349 9.32297 16.5349 10.3866V12.7323H20.173L19.6992 16.4062H16.5349Z" fill="white"/>
</svg>
