<svg width="150" height="81" viewBox="0 0 150 81" fill="none" xmlns="http://www.w3.org/2000/svg">
<path fill-rule="evenodd" clip-rule="evenodd" d="M72.23 22.4078H61.1107V0.210449H50.0044V55.6973H61.1107V33.5H72.23V55.6973H83.3363L72.23 0.210449V22.4078Z" fill="#CC1019"/>
<path fill-rule="evenodd" clip-rule="evenodd" d="M100.009 55.6973H88.9024L86.6812 44.6052H100.009V55.6973ZM100.009 11.3026H80.0043L77.7831 0.210449H100.009V11.3026ZM100.009 33.5H84.4468L82.2256 22.4078H100.009V33.5Z" fill="#002962"/>
<path d="M0 80.1784H2.80923V74.8933H6.79443V80.1784H9.60366V66.7895H6.79443V72.0746H2.80923V66.7895H0V80.1784ZM11.9948 80.1784H20.5923V77.3727H14.804V74.8933H19.926V72.0876H14.804V69.6082H20.5923V66.8025H11.9948V80.1784ZM31.3066 80.1784H34.4817L28.1838 66.4632L21.8859 80.1784H25.061L25.8188 78.3645H30.5488L31.3066 80.1784ZM26.8641 75.8851L28.1838 72.714L29.5035 75.8851H26.8641ZM36.5854 80.1784H39.3946V69.6082H42.6481V66.8025H33.3057V69.6082H36.5854V80.1784ZM44.1768 80.1784H46.9861V66.7895H44.1768V80.1784ZM59.8301 80.5046V66.7895H57.0209V73.9537L49.3641 66.4502V80.1653H52.1733V73.0272L59.8301 80.5046ZM68.7152 80.335C70.5314 80.335 72.1777 79.6433 73.5889 78.4167V72.0746H68.3493V74.8802H70.9233V76.8116C70.257 77.2553 69.4991 77.4902 68.676 77.4902C66.4155 77.4902 64.6254 75.7285 64.6254 73.4709C64.6254 71.2133 66.4155 69.4516 68.689 69.4516C69.865 69.4516 70.8711 69.9083 71.6812 70.7957L73.6803 68.7991C72.3084 67.3767 70.5706 66.6198 68.689 66.6198C64.8476 66.6198 61.777 69.6734 61.777 73.4709C61.7901 77.2814 64.8606 80.335 68.7152 80.335ZM81.2587 80.1784H89.8563V77.3727H84.0679V74.8933H89.1899V72.0876H84.0679V69.6082H89.8563V66.8025H81.2587V80.1784ZM102.295 80.5046V66.7895H99.4861V73.9537L91.8293 66.4502V80.1653H94.6385V73.0272L102.295 80.5046ZM104.673 80.1784H113.271V77.3727H107.483V74.8933H112.605V72.0876H107.483V69.6082H113.271V66.8025H104.673V80.1784ZM125.292 80.1784L122.3 75.0238C123.724 74.3321 124.652 72.8967 124.652 71.122C124.652 68.6425 122.783 66.7895 120.314 66.7895H115.244V80.1653H118.053V75.4544H119.425L122.038 80.1653H125.292V80.1784ZM118.053 69.6082H120.314C121.241 69.6082 121.829 70.2085 121.829 71.122C121.829 72.0615 121.228 72.6618 120.314 72.6618H118.053V69.6082ZM132.988 80.335C134.804 80.335 136.45 79.6433 137.861 78.4167V72.0746H132.622V74.8802H135.196V76.8116C134.53 77.2553 133.772 77.4902 132.949 77.4902C130.688 77.4902 128.898 75.7285 128.898 73.4709C128.898 71.2133 130.688 69.4516 132.962 69.4516C134.138 69.4516 135.144 69.9083 135.954 70.7957L137.953 68.7991C136.581 67.3767 134.843 66.6198 132.962 66.6198C129.12 66.6198 126.05 69.6734 126.05 73.4709C126.063 77.2814 129.133 80.335 132.988 80.335ZM143.023 80.1784H145.832V73.8624L150 66.7895H146.577L144.421 70.9654L142.291 66.7895H138.855L143.023 73.8624V80.1784Z" fill="black"/>
</svg>
