<svg width="30" height="31" viewBox="0 0 30 31" fill="none" xmlns="http://www.w3.org/2000/svg">
<g opacity="0.6">
<path d="M15.0004 12.2706C13.2745 12.2706 11.8759 13.7166 11.8759 15.5C11.8759 17.2834 13.2745 18.7294 15.0004 18.7294C16.7262 18.7294 18.1256 17.2834 18.1256 15.5C18.1256 13.7166 16.7262 12.2706 15.0004 12.2706Z" fill="white"/>
<path fill-rule="evenodd" clip-rule="evenodd" d="M9.4719 23.0521C9.80205 23.1851 10.2988 23.3424 11.2129 23.3854C12.2008 23.4324 12.4968 23.4417 15.0004 23.4417C17.5039 23.4417 17.8008 23.4324 18.789 23.3854C19.703 23.3425 20.2 23.1851 20.53 23.0521C20.9677 22.8761 21.2804 22.666 21.6083 22.3275C21.9362 21.989 22.1392 21.6663 22.3096 21.214C22.4374 20.8728 22.5904 20.3595 22.6321 19.415C22.6775 18.393 22.6866 18.0871 22.6866 15.5001C22.6866 12.913 22.6775 12.6072 22.6321 11.5852C22.5905 10.6407 22.4383 10.1272 22.3096 9.78616C22.1392 9.33387 21.9367 9.01069 21.6083 8.67186C21.28 8.33303 20.9677 8.12254 20.53 7.94724C20.199 7.81549 19.703 7.657 18.789 7.61399C17.8 7.5678 17.5028 7.55764 15.0004 7.55764C12.4979 7.55764 12.2011 7.56702 11.2129 7.61399C10.2988 7.65692 9.8019 7.81425 9.4719 7.94724C9.03345 8.12254 8.72145 8.33257 8.39355 8.67186C8.06565 9.01116 7.8627 9.33387 7.6923 9.78616C7.5648 10.1282 7.41142 10.6407 7.3698 11.5852C7.3251 12.6072 7.31527 12.913 7.31527 15.5001C7.31527 18.0871 7.32435 18.3939 7.3698 19.415C7.41135 20.3595 7.5636 20.873 7.6923 21.214C7.86195 21.6663 8.0652 21.9887 8.39355 22.3275C8.7219 22.6663 9.0342 22.8761 9.4719 23.0521ZM15.0004 20.4744C12.3416 20.4744 10.1864 18.2474 10.1864 15.5C10.1864 12.7526 12.3416 10.5256 15.0004 10.5256C17.6591 10.5256 19.8143 12.7526 19.8143 15.5C19.8143 18.2474 17.6591 20.4744 15.0004 20.4744ZM19.0692 10.9743C18.9457 10.7831 18.8798 10.5583 18.8799 10.3283C18.8802 10.0202 18.9988 9.72467 19.2097 9.50679C19.4206 9.28892 19.7066 9.16646 20.0049 9.16631C20.2274 9.1664 20.4453 9.23467 20.6303 9.36249C20.8152 9.4903 20.9594 9.67192 21.0444 9.88437C21.1295 10.0968 21.1517 10.3306 21.1082 10.5561C21.0647 10.7815 20.9575 10.9886 20.8001 11.1512C20.6427 11.3137 20.4422 11.4243 20.2239 11.4691C20.0057 11.5138 19.7795 11.4907 19.574 11.4026C19.3684 11.3146 19.1928 11.1655 19.0692 10.9743Z" fill="white"/>
<path fill-rule="evenodd" clip-rule="evenodd" d="M15 0C6.71573 0 0 6.93959 0 15.5C0 24.0604 6.71573 31 15 31C23.2843 31 30 24.0604 30 15.5C30 6.93959 23.2843 0 15 0ZM8.85967 6.32113C9.45525 6.08166 10.1372 5.91813 11.1352 5.87117C12.1354 5.82343 12.4552 5.8125 15.0011 5.8125C17.5471 5.8125 17.8666 5.8242 18.8662 5.87117C19.8635 5.91736 20.5451 6.08166 21.1418 6.32113C21.7575 6.56843 22.2808 6.89936 22.8018 7.43853C23.3227 7.97769 23.6431 8.51764 23.8831 9.15461C24.1149 9.77004 24.2731 10.4747 24.3186 11.506C24.364 12.539 24.3746 12.8692 24.3746 15.5C24.3746 18.1308 24.364 18.4603 24.3186 19.494C24.2739 20.5253 24.1149 21.2296 23.8831 21.8454C23.6431 22.4824 23.3236 23.0232 22.8018 23.5615C22.28 24.0998 21.7575 24.4309 21.1411 24.6789C20.5451 24.9183 19.8636 25.0819 18.8655 25.1288C17.8659 25.1766 17.5463 25.1875 15.0004 25.1875C12.4544 25.1875 12.1354 25.1758 11.1352 25.1288C10.1372 25.0819 9.45637 24.9183 8.85967 24.6789C8.24287 24.4309 7.72065 24.0996 7.19895 23.5615C6.67725 23.0234 6.35692 22.4824 6.1176 21.8454C5.88585 21.2296 5.7276 20.5253 5.68215 19.494C5.63595 18.461 5.62537 18.1308 5.62537 15.5C5.62537 12.8692 5.63595 12.539 5.68215 11.506C5.7276 10.4747 5.88585 9.77042 6.1176 9.15461C6.35692 8.51725 6.67717 7.97684 7.19895 7.43853C7.72072 6.90021 8.24287 6.56843 8.85967 6.32113Z" fill="white"/>
</g>
</svg>
