<svg width="150" height="150" viewBox="0 0 150 150" fill="none" xmlns="http://www.w3.org/2000/svg">
<g clip-path="url(#clip0)">
<path d="M59.6148 82.7225C60.3186 82.7225 61.0075 82.4685 61.5488 81.9924L69.348 75.1385C70.236 74.3581 70.5679 73.1198 70.1891 71.9994L67.4883 64.0137L73.8203 58.4485C74.7084 57.668 75.0403 56.4297 74.6615 55.3094L71.3335 45.4743C71.02 44.5462 70.2635 43.8367 69.3171 43.5826L52.3466 39.0359C50.7834 38.6159 49.1778 39.544 48.7589 41.1072C48.3401 42.6705 49.267 44.2773 50.8303 44.6961L66.2855 48.8366L68.4851 55.3368L62.1531 60.9021C61.265 61.6826 60.9331 62.9208 61.3119 64.0412L64.0127 72.0269L58.8583 76.5565L20.7644 66.3495L29.8441 32.4624C30.0455 31.7116 29.9402 30.9117 29.5523 30.2388C29.1632 29.5659 28.5235 29.0749 27.7727 28.8735L14.4209 25.2961C12.8588 24.8772 11.252 25.8042 10.8332 27.3675L0.0997775 67.4229C-0.101638 68.1737 0.00479148 68.9736 0.392746 69.6465C0.780701 70.3183 1.42157 70.8104 2.17116 71.0107L15.523 74.5881C15.777 74.6567 16.0322 74.6888 16.284 74.6888C17.5772 74.6888 18.7605 73.8259 19.1118 72.5167L19.248 72.0086L58.8572 82.6218C59.1067 82.6894 59.3619 82.7225 59.6148 82.7225ZM6.51762 66.1103L15.7347 31.7139L23.4263 33.775L14.2103 68.1714L6.51762 66.1103Z" fill="#295BA0"/>
<path d="M149.901 67.4229L139.167 27.3675C138.748 25.8053 137.143 24.8772 135.579 25.2961L122.228 28.8735C121.477 29.0749 120.837 29.5659 120.449 30.2388C120.06 30.9117 119.955 31.7105 120.156 32.4612L120.292 32.9693L80.6833 43.5826C79.722 43.8401 78.9564 44.5691 78.652 45.5178C78.3476 46.4665 78.5456 47.5033 79.1784 48.2735L84.7803 55.0896L83.0614 62.4344C82.8279 63.4324 83.1324 64.4795 83.8636 65.1959L89.5433 70.7589L87.5372 79.1073C87.2957 80.1121 87.6013 81.1696 88.3406 81.8905C88.8956 82.4307 89.6315 82.7225 90.3856 82.7225C90.6385 82.7225 90.8926 82.6893 91.1432 82.6218L108.114 78.0751C109.677 77.6562 110.604 76.0495 110.185 74.4862C109.766 72.9241 108.159 71.996 106.597 72.4148L94.3853 75.6878L95.6293 70.5128C95.8696 69.5103 95.5664 68.4552 94.8305 67.7342L89.1417 62.1632L90.8159 55.0152C91.0242 54.126 90.8056 53.1922 90.2266 52.4872L86.5919 48.0652L121.809 38.6296L130.889 72.5167C131.24 73.8259 132.423 74.6888 133.718 74.6888C133.968 74.6888 134.223 74.6567 134.477 74.5892L147.829 71.0118C148.58 70.8104 149.22 70.3194 149.608 69.6465C149.997 68.9736 150.102 68.1737 149.901 67.4229ZM135.791 68.1714L126.71 34.2843C126.71 34.2843 126.71 34.2843 126.71 34.2831V34.282L126.574 33.775L134.267 31.7139L143.483 66.1103L135.791 68.1714Z" fill="#295BA0"/>
<path d="M77.1634 84.7458C76.6084 84.1369 75.8233 83.7902 74.9993 83.7902C74.1765 83.7902 73.3903 84.1369 72.8352 84.7458C72.6064 84.9964 72.3546 85.2699 72.0822 85.564C67.8376 90.1726 59.0039 99.7604 59.0039 108.809C59.0039 117.629 66.1794 124.806 74.9993 124.806C83.8193 124.806 90.9947 117.629 90.9947 108.809C90.9947 99.7604 82.1622 90.1726 77.9164 85.5652C77.6452 85.2699 77.3923 84.9964 77.1634 84.7458ZM74.9993 118.946C69.41 118.946 64.8633 114.399 64.8633 108.809C64.8633 102.806 71.0042 95.4677 74.9993 91.0549C78.9944 95.4677 85.1353 102.806 85.1353 108.809C85.1353 114.399 80.5886 118.946 74.9993 118.946Z" fill="#295BA0"/>
<path d="M38.0502 41.2709C38.3191 41.3475 38.5892 41.3842 38.8559 41.3842C40.1307 41.3842 41.3038 40.5453 41.6711 39.259C42.1163 37.7026 41.2156 36.081 39.6592 35.6369H39.657C38.1017 35.1918 36.4812 36.0924 36.036 37.6488C35.592 39.2041 36.4938 40.8268 38.0502 41.2709Z" fill="#295BA0"/>
<path d="M119.336 69.0022L119.334 69.0033C117.771 69.4199 116.841 71.0243 117.259 72.5887C117.608 73.8991 118.794 74.7631 120.088 74.7631C120.339 74.7631 120.593 74.7311 120.846 74.6636C122.409 74.247 123.338 72.6414 122.922 71.0781C122.504 69.5149 120.898 68.5845 119.336 69.0022Z" fill="#295BA0"/>
</g>
<defs>
<clipPath id="clip0">
<rect width="150" height="150" fill="white"/>
</clipPath>
</defs>
</svg>
