<svg width="85" height="46" viewBox="0 0 85 46" fill="none" xmlns="http://www.w3.org/2000/svg">
<path fill-rule="evenodd" clip-rule="evenodd" d="M40.9304 12.5785H34.6295V0H28.3359V31.4425H34.6295V18.864H40.9304V31.4425H47.224L40.9304 0V12.5785Z" fill="#CC1019"/>
<path fill-rule="evenodd" clip-rule="evenodd" d="M56.6717 31.4425H50.3781L49.1194 25.157H56.6717V31.4425ZM56.6717 6.28555H45.3359L44.0771 0H56.6717V6.28555ZM56.6717 18.864H47.8533L46.5946 12.5785H56.6717V18.864Z" fill="#002962"/>
<path d="M0 45.3151H1.5919V42.3202H3.85017V45.3151H5.44207V37.7281H3.85017V40.723H1.5919V37.7281H0V45.3151ZM6.79704 45.3151H11.669V43.7252H8.38894V42.3202H11.2914V40.7303H8.38894V39.3253H11.669V37.7355H6.79704V45.3151ZM17.7404 45.3151H19.5396L15.9708 37.5432L12.402 45.3151H14.2012L14.6307 44.2872H17.311L17.7404 45.3151ZM15.223 42.8822L15.9708 41.0853L16.7186 42.8822H15.223ZM20.7317 45.3151H22.3236V39.3253H24.1672V37.7355H18.8733V39.3253H20.7317V45.3151ZM25.0335 45.3151H26.6254V37.7281H25.0335V45.3151ZM33.9037 45.5V37.7281H32.3118V41.7878L27.973 37.5358V45.3077H29.5649V41.2628L33.9037 45.5ZM38.9386 45.4038C39.9678 45.4038 40.9007 45.0119 41.7004 44.3168V40.723H38.7313V42.3128H40.1899V43.4073C39.8123 43.6587 39.3828 43.7918 38.9164 43.7918C37.6355 43.7918 36.6211 42.7935 36.6211 41.5142C36.6211 40.2349 37.6355 39.2366 38.9238 39.2366C39.5902 39.2366 40.1603 39.4954 40.6193 39.9983L41.7522 38.8669C40.9747 38.0608 39.99 37.6319 38.9238 37.6319C36.747 37.6319 35.007 39.3623 35.007 41.5142C35.0144 43.6735 36.7544 45.4038 38.9386 45.4038ZM46.0466 45.3151H50.9186V43.7252H47.6385V42.3202H50.5409V40.7303H47.6385V39.3253H50.9186V37.7355H46.0466V45.3151ZM57.9673 45.5V37.7281H56.3754V41.7878L52.0366 37.5358V45.3077H53.6285V41.2628L57.9673 45.5ZM59.3149 45.3151H64.1869V43.7252H60.9068V42.3202H63.8092V40.7303H60.9068V39.3253H64.1869V37.7355H59.3149V45.3151ZM70.9987 45.3151L69.3031 42.3942C70.1102 42.0022 70.6359 41.1888 70.6359 40.1831C70.6359 38.7781 69.5771 37.7281 68.1777 37.7281H65.3049V45.3077H66.8968V42.6382H67.6742L69.1551 45.3077H70.9987V45.3151ZM66.8968 39.3253H68.1777C68.7034 39.3253 69.0366 39.6655 69.0366 40.1831C69.0366 40.7156 68.696 41.0557 68.1777 41.0557H66.8968V39.3253ZM75.3598 45.4038C76.3889 45.4038 77.3219 45.0119 78.1215 44.3168V40.723H75.1524V42.3128H76.6111V43.4073C76.2334 43.6587 75.804 43.7918 75.3375 43.7918C74.0566 43.7918 73.0423 42.7935 73.0423 41.5142C73.0423 40.2349 74.0566 39.2366 75.3449 39.2366C76.0113 39.2366 76.5815 39.4954 77.0405 39.9983L78.1733 38.8669C77.3959 38.0608 76.4111 37.6319 75.3449 37.6319C73.1681 37.6319 71.4281 39.3623 71.4281 41.5142C71.4355 43.6735 73.1755 45.4038 75.3598 45.4038ZM81.0462 45.3151H82.6381V41.736L85 37.7281H83.0601L81.8384 40.0944L80.6315 37.7281H78.6842L81.0462 41.736V45.3151Z" fill="black"/>
</svg>
