<svg width="20" height="20" viewBox="0 0 20 20" fill="none" xmlns="http://www.w3.org/2000/svg">
<path d="M11.1719 17.8516C10.8594 18.1641 10.4688 18.3203 10 18.3203C9.53125 18.3203 9.1276 18.1641 8.78906 17.8516C8.47656 17.513 8.32031 17.1224 8.32031 16.6797H11.6406C11.6406 17.1484 11.4844 17.5391 11.1719 17.8516ZM15 9.17969V13.3203L16.6797 15V15.8203H3.32031V15L5 13.3203V9.17969C5 7.8776 5.32552 6.74479 5.97656 5.78125C6.65365 4.81771 7.57812 4.19271 8.75 3.90625V3.32031C8.75 2.98177 8.86719 2.69531 9.10156 2.46094C9.33594 2.20052 9.63542 2.07031 10 2.07031C10.3646 2.07031 10.6641 2.20052 10.8984 2.46094C11.1328 2.69531 11.25 2.98177 11.25 3.32031V3.90625C12.4219 4.19271 13.3333 4.81771 13.9844 5.78125C14.6615 6.74479 15 7.8776 15 9.17969ZM16.6406 8.75C16.5104 6.51042 15.5339 4.72656 13.7109 3.39844L14.8828 2.22656C17.0443 3.89323 18.1901 6.06771 18.3203 8.75H16.6406ZM6.32812 3.39844C4.47917 4.70052 3.48958 6.48438 3.35938 8.75H1.67969C1.8099 6.06771 2.95573 3.89323 5.11719 2.22656L6.32812 3.39844Z" fill="white"/>
</svg>
