<svg width="20" height="20" viewBox="0 0 20 20" fill="none" xmlns="http://www.w3.org/2000/svg">
<path d="M13.3203 15V3.32031H5.82031V15H13.3203ZM8.67188 17.9688C8.93229 18.2031 9.23177 18.3203 9.57031 18.3203C9.90885 18.3203 10.1953 18.2031 10.4297 17.9688C10.6901 17.7083 10.8203 17.4089 10.8203 17.0703C10.8203 16.7318 10.6901 16.4453 10.4297 16.2109C10.1953 15.9505 9.90885 15.8203 9.57031 15.8203C9.23177 15.8203 8.93229 15.9505 8.67188 16.2109C8.4375 16.4453 8.32031 16.7318 8.32031 17.0703C8.32031 17.4089 8.4375 17.7083 8.67188 17.9688ZM12.9297 0.820312C13.5026 0.820312 13.9844 1.02865 14.375 1.44531C14.7917 1.86198 15 2.35677 15 2.92969V17.0703C15 17.6432 14.7917 18.138 14.375 18.5547C13.9844 18.9714 13.5026 19.1797 12.9297 19.1797H6.25C5.67708 19.1797 5.18229 18.9714 4.76562 18.5547C4.375 18.138 4.17969 17.6432 4.17969 17.0703V2.92969C4.17969 2.35677 4.375 1.86198 4.76562 1.44531C5.18229 1.02865 5.67708 0.820312 6.25 0.820312H12.9297Z" fill="white"/>
</svg>
