<svg width="23" height="22" viewBox="0 0 23 22" fill="none" xmlns="http://www.w3.org/2000/svg">
<path d="M8.93534 13.2773C9.56555 13.9076 10.3247 14.2227 11.2127 14.2227C12.1007 14.2227 12.8598 13.9076 13.49 13.2773C14.1202 12.6471 14.4353 11.888 14.4353 11C14.4353 10.112 14.1202 9.35286 13.49 8.72266C12.8598 8.09245 12.1007 7.77734 11.2127 7.77734C10.3247 7.77734 9.56555 8.09245 8.93534 8.72266C8.30514 9.35286 7.99003 10.112 7.99003 11C7.99003 11.888 8.30514 12.6471 8.93534 13.2773ZM18.0447 11.9023L19.9783 13.4062C20.1788 13.5495 20.2075 13.75 20.0643 14.0078L18.2166 17.1875C18.102 17.388 17.9158 17.4453 17.658 17.3594L15.3807 16.457C14.7791 16.8867 14.2635 17.1875 13.8338 17.3594L13.49 19.7656C13.4327 20.0234 13.2895 20.1523 13.0603 20.1523H9.36503C9.13586 20.1523 8.99264 20.0234 8.93534 19.7656L8.59159 17.3594C8.04732 17.1302 7.5317 16.8294 7.04472 16.457L4.76737 17.3594C4.50956 17.4453 4.32336 17.388 4.20878 17.1875L2.36112 14.0078C2.2179 13.75 2.24654 13.5495 2.44706 13.4062L4.38066 11.9023C4.35201 11.7018 4.33769 11.401 4.33769 11C4.33769 10.599 4.35201 10.2982 4.38066 10.0977L2.44706 8.59375C2.24654 8.45052 2.2179 8.25 2.36112 7.99219L4.20878 4.8125C4.32336 4.61198 4.50956 4.55469 4.76737 4.64062L7.04472 5.54297C7.64628 5.11328 8.16191 4.8125 8.59159 4.64062L8.93534 2.23438C8.99264 1.97656 9.13586 1.84766 9.36503 1.84766H13.0603C13.2895 1.84766 13.4327 1.97656 13.49 2.23438L13.8338 4.64062C14.3781 4.86979 14.8937 5.17057 15.3807 5.54297L17.658 4.64062C17.9158 4.55469 18.102 4.61198 18.2166 4.8125L20.0643 7.99219C20.2075 8.25 20.1788 8.45052 19.9783 8.59375L18.0447 10.0977C18.0734 10.2982 18.0877 10.599 18.0877 11C18.0877 11.401 18.0734 11.7018 18.0447 11.9023Z" fill="#989898"/>
</svg>
