<svg width="31" height="31" viewBox="0 0 31 31" fill="none" xmlns="http://www.w3.org/2000/svg">
<path d="M20.1872 10.8065C20.2098 10.468 19.6455 10.8065 19.6455 10.8065L10.7753 16.4492C10.6398 16.5395 10.5947 16.6975 10.6398 16.8329L11.7007 20.3088C11.7684 20.5119 12.0618 20.4893 12.1069 20.2636L12.3552 18.142C12.3552 18.0517 12.4003 17.984 12.4681 17.9389C13.3257 17.1715 19.7132 11.4385 19.9841 11.1677C20.2775 10.8517 20.1872 10.8065 20.1872 10.8065Z" fill="white"/>
<path fill-rule="evenodd" clip-rule="evenodd" d="M15.5 0C6.93959 0 0 6.93959 0 15.5C0 24.0604 6.93959 31 15.5 31C24.0604 31 31 24.0604 31 15.5C31 6.93959 24.0604 0 15.5 0ZM20.4355 22.6561C20.4355 22.6561 20.0292 23.6493 18.9458 23.1753L14.8831 20.0605L12.2649 22.4304C12.2649 22.4304 12.0618 22.5884 11.8361 22.4982C11.8361 22.4982 11.6329 22.4756 11.4072 21.7307C11.1589 20.9633 9.94012 16.9683 9.94012 16.9683L5.89997 15.6141C5.89997 15.6141 5.29056 15.3884 5.22285 14.9144C5.15514 14.4404 5.92254 14.1696 5.92254 14.1696L21.9703 7.87236C21.9703 7.87236 23.2794 7.28552 23.302 8.25606L20.4355 22.6561Z" fill="white"/>
</svg>
