<svg width="32" height="31" viewBox="0 0 32 31" fill="none" xmlns="http://www.w3.org/2000/svg">
<g opacity="0.6">
<path fill-rule="evenodd" clip-rule="evenodd" d="M12.4716 21.1419L12.7743 21.2885C13.9347 21.9727 15.2969 22.3148 16.659 22.3148C18.0716 22.3148 19.4842 21.9239 20.6446 21.1908C24.277 19.0403 25.3365 14.495 23.1167 10.9761C20.8969 7.45719 16.205 6.43084 12.5725 8.58129C8.9401 10.7317 7.88064 15.3259 10.1005 18.7959L10.3023 19.0892L9.5455 21.875L12.4716 21.1419ZM20.5437 16.6455L21.0987 16.8899C21.1996 16.9387 21.25 16.9876 21.25 16.9876V17.3297C21.1996 17.5741 21.1491 17.8185 21.0482 18.0139C20.9978 18.1117 20.8969 18.2094 20.796 18.3072C20.7455 18.3561 20.6951 18.3927 20.6446 18.4294C20.5942 18.466 20.5437 18.5027 20.4933 18.5516L20.3924 18.6493C20.3357 18.7042 20.279 18.7283 20.2134 18.7561C20.1622 18.7779 20.1056 18.8019 20.0392 18.8448C19.8374 18.9426 19.5347 19.0403 19.2824 19.0403H18.7779C18.7023 19.0159 18.614 19.0036 18.5257 18.9914C18.4374 18.9792 18.3491 18.967 18.2734 18.9426C16.9113 18.6004 15.7005 17.9651 14.641 17.0853C14.5751 16.9896 14.4876 16.9146 14.3927 16.8333C14.3423 16.7901 14.2899 16.7452 14.2374 16.6944L14.0356 16.4989C13.2284 15.7658 12.623 14.9349 12.1689 14.0063L12.1185 13.8597C11.9671 13.5176 11.8662 13.1266 11.8662 12.7356C11.8662 12.198 12.068 11.6603 12.4212 11.2205C12.4716 11.1716 12.5095 11.1227 12.5473 11.0739C12.5851 11.025 12.623 10.9761 12.6734 10.9272C12.7239 10.9028 12.7743 10.8661 12.8248 10.8295C12.8752 10.7928 12.9257 10.7562 12.9761 10.7317L13.0266 10.6829C13.077 10.6829 13.1275 10.6706 13.1779 10.6584C13.2284 10.6462 13.2788 10.634 13.3293 10.634H13.8842C14.0356 10.6829 14.1365 10.7317 14.2374 10.8784C14.3887 11.1716 14.9942 12.4912 15.0446 12.7356C15.0951 12.8822 15.0446 13.0777 14.9437 13.2243C14.8933 13.2732 14.8554 13.3343 14.8176 13.3954C14.7797 13.4565 14.7419 13.5176 14.6915 13.5664C14.5401 13.713 14.3383 13.9574 14.3383 13.9574C14.2878 14.0063 14.2878 14.104 14.2878 14.2018C14.3071 14.2391 14.319 14.2693 14.3292 14.2951C14.3457 14.3369 14.3576 14.3671 14.3887 14.3973L14.4392 14.495C14.6915 14.9349 15.0446 15.3259 15.3978 15.668C15.4482 15.7169 15.5113 15.7658 15.5743 15.8146C15.6374 15.8635 15.7005 15.9124 15.7509 15.9612C16.1545 16.3522 16.659 16.6455 17.214 16.8899L17.4662 16.9876C17.5167 17.0365 17.6176 17.0853 17.668 17.0853H17.7185C17.8194 17.0853 17.9203 17.0365 17.9707 16.9387C18.677 16.1567 18.7275 16.1079 18.7275 16.1079C18.8284 16.059 18.9293 16.0101 19.0806 16.0101C19.1059 16.0101 19.1311 16.0223 19.1563 16.0346C19.1815 16.0468 19.2068 16.059 19.232 16.059C19.7365 16.3034 20.5437 16.6455 20.5437 16.6455Z" fill="white"/>
<path fill-rule="evenodd" clip-rule="evenodd" d="M16 0C7.16344 0 0 6.93959 0 15.5C0 24.0604 7.16344 31 16 31C24.8366 31 32 24.0604 32 15.5C32 6.93959 24.8366 0 16 0ZM16.659 5.89323C19.0806 5.89323 21.4518 6.82183 23.1671 8.53242C24.8824 10.1941 25.841 12.4423 25.841 14.8371C25.841 19.7734 21.7041 23.8299 16.6086 23.8299C15.0951 23.8299 13.5815 23.4878 12.2194 22.7547L7.32568 23.9766L8.6374 19.3335C7.88064 17.9651 7.42658 16.45 7.42658 14.886C7.37613 9.94976 11.5131 5.89323 16.659 5.89323Z" fill="white"/>
</g>
</svg>
